HIERARCHY
ROOT Hips
{
	OFFSET 0.000000 100.481300 0.000000
	CHANNELS 6 Xposition Yposition Zposition Xrotation Yrotation Zrotation
	JOINT Spine
	{
		OFFSET -0.279200 12.230698 -2.892100
		CHANNELS 3 Xrotation Yrotation Zrotation
		JOINT Spine1
		{
			OFFSET -0.325700 14.269203 -3.374200
			CHANNELS 3 Xrotation Yrotation Zrotation
			JOINT Spine2
			{
				OFFSET -0.372300 16.307602 -0.352600
				CHANNELS 3 Xrotation Yrotation Zrotation
				JOINT Neck
				{
					OFFSET -0.418800 17.814194 8.416900
					CHANNELS 3 Xrotation Yrotation Zrotation
					JOINT Head
					{
						OFFSET 0.000000 7.031097 3.806800
						CHANNELS 3 Xrotation Yrotation Zrotation
						JOINT HeadTop_End
						{
							OFFSET 0.000000 24.646606 12.978600
							CHANNELS 3 Xrotation Yrotation Zrotation
							End Site
							{
								OFFSET 0.000000 27.854965 0.000000
							}
						}
					}
				}
				JOINT LeftShoulder
				{
					OFFSET 16.952999 14.495407 -7.737500
					CHANNELS 3 Xrotation Yrotation Zrotation
					JOINT LeftArm
					{
						OFFSET 9.308998 -2.777710 0.208600
						CHANNELS 3 Xrotation Yrotation Zrotation
						JOINT LeftForeArm
						{
							OFFSET 29.972298 0.000000 0.000000
							CHANNELS 3 Xrotation Yrotation Zrotation
							JOINT LeftHand
							{
								OFFSET 26.026505 0.000000 0.000000
								CHANNELS 3 Xrotation Yrotation Zrotation
								JOINT LeftHandThumb1
								{
									OFFSET 12.240501 -7.147949 9.207150
									CHANNELS 3 Xrotation Yrotation Zrotation
									JOINT LeftHandThumb2
									{
										OFFSET 4.138618 -2.389435 2.389433
										CHANNELS 3 Xrotation Yrotation Zrotation
										JOINT LeftHandThumb3
										{
											OFFSET 2.726913 -1.574387 1.574386
											CHANNELS 3 Xrotation Yrotation Zrotation
											JOINT LeftHandThumb4
											{
												OFFSET 3.941010 -2.275345 2.275342
												CHANNELS 3 Xrotation Yrotation Zrotation
												End Site
												{
													OFFSET -0.005798 5.087799 0.009903
												}
											}
										}
									}
								}
								JOINT LeftHandIndex1
								{
									OFFSET 24.424698 -1.985611 5.953459
									CHANNELS 3 Xrotation Yrotation Zrotation
									JOINT LeftHandIndex2
									{
										OFFSET 6.426697 0.000000 0.000000
										CHANNELS 3 Xrotation Yrotation Zrotation
										JOINT LeftHandIndex3
										{
											OFFSET 5.337898 0.000000 0.000000
											CHANNELS 3 Xrotation Yrotation Zrotation
											JOINT LeftHandIndex4
											{
												OFFSET 4.409401 0.000000 0.000000
												CHANNELS 3 Xrotation Yrotation Zrotation
												End Site
												{
													OFFSET 0.000000 4.409363 0.014373
												}
											}
										}
									}
								}
								JOINT LeftHandMiddle1
								{
									OFFSET 23.810104 0.000000 0.000000
									CHANNELS 3 Xrotation Yrotation Zrotation
									JOINT LeftHandMiddle2
									{
										OFFSET 7.176498 0.000000 0.000000
										CHANNELS 3 Xrotation Yrotation Zrotation
										JOINT LeftHandMiddle3
										{
											OFFSET 6.774902 0.000000 0.000000
											CHANNELS 3 Xrotation Yrotation Zrotation
											JOINT LeftHandMiddle4
											{
												OFFSET 5.403328 0.000000 0.000000
												CHANNELS 3 Xrotation Yrotation Zrotation
												End Site
												{
													OFFSET -0.027702 5.403244 0.017414
												}
											}
										}
									}
								}
								JOINT LeftHandRing1
								{
									OFFSET 22.908401 -0.839279 -6.020567
									CHANNELS 3 Xrotation Yrotation Zrotation
									JOINT LeftHandRing2
									{
										OFFSET 6.337502 0.000000 0.000000
										CHANNELS 3 Xrotation Yrotation Zrotation
										JOINT LeftHandRing3
										{
											OFFSET 5.779297 0.000000 0.000000
											CHANNELS 3 Xrotation Yrotation Zrotation
											JOINT LeftHandRing4
											{
												OFFSET 4.965698 0.000000 0.000000
												CHANNELS 3 Xrotation Yrotation Zrotation
												End Site
												{
													OFFSET 0.000000 4.965668 0.016186
												}
											}
										}
									}
								}
								JOINT LeftHandPinky1
								{
									OFFSET 20.037003 -1.530319 -10.950146
									CHANNELS 3 Xrotation Yrotation Zrotation
									JOINT LeftHandPinky2
									{
										OFFSET 5.254700 0.000000 0.000000
										CHANNELS 3 Xrotation Yrotation Zrotation
										JOINT LeftHandPinky3
										{
											OFFSET 4.810204 0.000000 0.000000
											CHANNELS 3 Xrotation Yrotation Zrotation
											JOINT LeftHandPinky4
											{
												OFFSET 3.647202 0.000000 0.000000
												CHANNELS 3 Xrotation Yrotation Zrotation
												End Site
												{
													OFFSET 0.000000 3.647186 0.011889
												}
											}
										}
									}
								}
							}
						}
					}
				}
				JOINT RightShoulder
				{
					OFFSET -15.141001 14.495407 -7.737500
					CHANNELS 3 Xrotation Yrotation Zrotation
					JOINT RightArm
					{
						OFFSET -9.308998 -2.777710 0.208500
						CHANNELS 3 Xrotation Yrotation Zrotation
						JOINT RightForeArm
						{
							OFFSET -29.972300 0.000000 0.000000
							CHANNELS 3 Xrotation Yrotation Zrotation
							JOINT RightHand
							{
								OFFSET -26.026505 0.000000 0.000000
								CHANNELS 3 Xrotation Yrotation Zrotation
								JOINT RightHandThumb1
								{
									OFFSET -12.240601 -7.148026 9.207092
									CHANNELS 3 Xrotation Yrotation Zrotation
									JOINT RightHandThumb2
									{
										OFFSET -4.138618 -2.389435 2.389433
										CHANNELS 3 Xrotation Yrotation Zrotation
										JOINT RightHandThumb3
										{
											OFFSET -2.726974 -1.574417 1.574421
											CHANNELS 3 Xrotation Yrotation Zrotation
											JOINT RightHandThumb4
											{
												OFFSET -3.941010 -2.275345 2.275343
												CHANNELS 3 Xrotation Yrotation Zrotation
												End Site
												{
													OFFSET 0.005814 5.087799 0.009927
												}
											}
										}
									}
								}
								JOINT RightHandIndex1
								{
									OFFSET -24.424698 -1.985657 5.953444
									CHANNELS 3 Xrotation Yrotation Zrotation
									JOINT RightHandIndex2
									{
										OFFSET -6.426697 0.000000 0.000000
										CHANNELS 3 Xrotation Yrotation Zrotation
										JOINT RightHandIndex3
										{
											OFFSET -5.337898 0.000000 0.000000
											CHANNELS 3 Xrotation Yrotation Zrotation
											JOINT RightHandIndex4
											{
												OFFSET -4.409401 0.000000 0.000000
												CHANNELS 3 Xrotation Yrotation Zrotation
												End Site
												{
													OFFSET 0.000000 4.409363 0.014408
												}
											}
										}
									}
								}
								JOINT RightHandMiddle1
								{
									OFFSET -23.810097 0.000000 0.000000
									CHANNELS 3 Xrotation Yrotation Zrotation
									JOINT RightHandMiddle2
									{
										OFFSET -7.176498 0.000000 0.000000
										CHANNELS 3 Xrotation Yrotation Zrotation
										JOINT RightHandMiddle3
										{
											OFFSET -6.774902 0.000000 0.000000
											CHANNELS 3 Xrotation Yrotation Zrotation
											JOINT RightHandMiddle4
											{
												OFFSET -5.403328 0.000000 0.000000
												CHANNELS 3 Xrotation Yrotation Zrotation
												End Site
												{
													OFFSET 0.027702 5.403244 0.017457
												}
											}
										}
									}
								}
								JOINT RightHandRing1
								{
									OFFSET -22.908302 -0.839325 -6.020576
									CHANNELS 3 Xrotation Yrotation Zrotation
									JOINT RightHandRing2
									{
										OFFSET -6.337502 0.000000 0.000000
										CHANNELS 3 Xrotation Yrotation Zrotation
										JOINT RightHandRing3
										{
											OFFSET -5.779297 0.000000 0.000000
											CHANNELS 3 Xrotation Yrotation Zrotation
											JOINT RightHandRing4
											{
												OFFSET -4.965698 0.000000 0.000000
												CHANNELS 3 Xrotation Yrotation Zrotation
												End Site
												{
													OFFSET 0.000000 4.965668 0.016226
												}
											}
										}
									}
								}
								JOINT RightHandPinky1
								{
									OFFSET -20.037003 -1.530334 -10.950259
									CHANNELS 3 Xrotation Yrotation Zrotation
									JOINT RightHandPinky2
									{
										OFFSET -5.254700 0.000000 0.000000
										CHANNELS 3 Xrotation Yrotation Zrotation
										JOINT RightHandPinky3
										{
											OFFSET -4.810204 0.000000 0.000000
											CHANNELS 3 Xrotation Yrotation Zrotation
											JOINT RightHandPinky4
											{
												OFFSET -3.647202 0.000000 0.000000
												CHANNELS 3 Xrotation Yrotation Zrotation
												End Site
												{
													OFFSET 0.000000 3.647186 0.011917
												}
											}
										}
									}
								}
							}
						}
					}
				}
			}
		}
	}
	JOINT LeftUpLeg
	{
		OFFSET 15.427100 -6.655098 0.678600
		CHANNELS 3 Xrotation Yrotation Zrotation
		JOINT LeftLeg
		{
			OFFSET 4.081073 -39.591068 13.024000
			CHANNELS 3 Xrotation Yrotation Zrotation
			JOINT LeftFoot
			{
				OFFSET -4.081074 -37.707932 -15.979700
				CHANNELS 3 Xrotation Yrotation Zrotation
				JOINT LeftToeBase
				{
					OFFSET 5.346399 -15.068900 20.645000
					CHANNELS 3 Xrotation Yrotation Zrotation
					JOINT LeftToe_End
					{
						OFFSET 2.754700 0.931300 11.300900
						CHANNELS 3 Xrotation Yrotation Zrotation
						End Site
						{
							OFFSET 0.000000 11.669021 0.000000
						}
					}
				}
			}
		}
	}
	JOINT RightUpLeg
	{
		OFFSET -15.569500 -6.655098 0.678600
		CHANNELS 3 Xrotation Yrotation Zrotation
		JOINT RightLeg
		{
			OFFSET -4.081825 -39.591045 13.023800
			CHANNELS 3 Xrotation Yrotation Zrotation
			JOINT RightFoot
			{
				OFFSET 4.081824 -37.707954 -15.979600
				CHANNELS 3 Xrotation Yrotation Zrotation
				JOINT RightToeBase
				{
					OFFSET -5.346400 -15.068900 20.645000
					CHANNELS 3 Xrotation Yrotation Zrotation
					JOINT RightToe_End
					{
						OFFSET -2.754700 0.931300 11.300900
						CHANNELS 3 Xrotation Yrotation Zrotation
						End Site
						{
							OFFSET 0.000000 11.669021 0.000000
						}
					}
				}
			}
		}
	}
}
MOTION
Frames: 5
Frame Time: 0.033333
0.905962 89.659225 -2.238852 1.031848 2.941526 -4.754102 0.180731 0.112319 3.481502 0.384980 0.692414 0.496923 0.384981 0.692416 0.496922 -0.004308 -0.455992 -1.208089 2.744957 -3.027617 1.908107 0.000000 -0.000000 0.000000 0.546333 -14.779635 -16.719043 -6.085806 6.471304 -50.651392 18.149221 -31.939047 -5.078719 19.399827 -9.016988 14.005300 -4.345578 9.457216 -7.836170 2.321108 6.714553 2.170795 0.000003 0.000006 0.000002 -0.000000 -0.000000 0.000002 -1.499731 -3.814483 -43.148730 -5.662591 -4.118106 -82.311122 0.000006 0.000001 -0.000004 -0.000000 0.000002 0.000000 -7.908934 -5.580430 -63.605276 -7.591113 -5.258747 -102.716906 0.000012 0.000009 -0.000021 -0.000000 -0.000000 0.000002 -11.486988 3.391625 -64.339972 -4.455234 -4.250693 -105.406922 -0.000004 -0.000005 0.000006 -0.000001 -0.000005 -0.000002 -15.030024 7.738515 -73.848695 -1.777700 -6.205673 -96.171393 -0.000003 0.000001 0.000002 -0.000001 0.000001 0.000001 1.417833 7.418188 17.752879 0.623259 -19.220132 55.031070 11.687458 24.821864 10.776466 22.357716 3.434287 -7.264803 -9.602765 -7.271320 -3.550016 28.956126 -3.829407 -1.361111 -0.000001 0.000013 -0.000016 -0.000001 0.000000 -0.000002 -2.363343 -1.255333 39.624687 -4.710215 1.438911 67.073933 -0.000001 0.000000 0.000000 0.000001 0.000002 -0.000000 -4.849763 -0.701738 49.132399 -6.221382 1.763812 73.275185 0.000002 -0.000003 -0.000000 0.000001 0.000002 -0.000001 -3.144859 3.169575 48.237501 -2.903495 6.439049 80.689799 -0.000000 0.000002 -0.000004 -0.000001 0.000001 0.000001 -3.191776 6.453683 44.656251 -3.191014 10.393816 87.421647 -0.000004 0.000003 -0.000002 0.000002 -0.000001 -0.000001 -25.055682 4.298070 9.367348 57.643573 -0.240196 0.421440 3.877151 -0.262081 -1.104789 -24.973728 -1.558483 -1.012239 -0.000000 0.000000 0.000000 -17.141435 -10.403352 7.055314 28.675385 6.770642 -0.768738 -11.162112 1.090427 -6.032151 -4.894243 -0.667438 0.583830 -0.000000 0.000000 0.000000 
0.808187 90.259781 2.755203 0.804078 -0.259354 -3.945748 0.156846 0.580759 2.760893 0.366672 1.104975 0.125632 0.366672 1.104975 0.125632 0.256670 -0.270491 -1.141138 2.865496 -2.342730 2.011222 -0.000000 0.000000 -0.000000 0.592383 -14.512340 -16.537413 -3.730645 9.080560 -51.161798 17.699418 -33.288218 -4.701828 18.835620 -9.774317 13.146233 -4.345578 9.457220 -7.836165 -3.936727 4.137613 3.827736 0.000002 0.000006 0.000006 -0.000002 -0.000001 0.000000 -1.671821 -4.051118 -43.922276 -5.659638 -4.118094 -82.293917 0.000005 0.000002 -0.000005 -0.000001 0.000000 -0.000000 -8.085510 -5.702700 -64.240006 -7.592023 -5.258512 -102.722493 0.000014 0.000003 -0.000023 -0.000002 -0.000002 0.000002 -11.556660 3.250258 -64.824540 -4.455799 -4.250450 -105.432132 -0.000003 -0.000002 0.000003 -0.000000 0.000002 0.000000 -15.003014 7.983096 -74.050022 -1.775801 -6.206753 -96.221581 -0.000000 -0.000002 -0.000002 0.000003 -0.000003 -0.000002 1.482197 8.086674 16.813655 1.093887 -17.517637 55.846116 11.409198 31.084430 9.897853 18.316546 3.499192 -7.717129 -4.663172 -3.625581 1.656056 24.868399 -4.813896 -2.976800 -0.000000 0.000014 -0.000018 -0.000003 -0.000000 0.000001 -2.663447 -0.957329 42.454803 -4.562709 1.442523 65.904830 -0.000000 -0.000001 0.000001 0.000001 0.000001 0.000000 -5.207857 -0.667044 52.887606 -6.258720 1.752518 73.641153 0.000001 -0.000006 0.000002 0.000000 -0.000002 -0.000000 -3.821149 3.850368 51.553127 -2.962418 6.480120 81.631914 0.000000 -0.000001 0.000005 -0.000000 -0.000001 -0.000002 -3.892965 6.832234 47.658106 -3.193666 10.397665 87.496233 -0.000005 0.000003 -0.000004 -0.000003 0.000001 -0.000002 -29.800539 3.819373 7.130942 52.239882 -1.052671 0.659160 0.971421 -0.166628 -2.737797 -14.669102 0.197203 1.901233 -0.000000 0.000000 0.000000 -13.891528 -10.018565 6.681348 28.635744 9.970073 -0.140510 -12.175462 1.601701 -7.278771 -5.977061 -0.431946 0.402241 -0.000000 -0.000000 0.000000 
0.814681 90.712708 7.373023 0.728119 -3.823995 -2.705588 0.115263 1.054923 1.627301 0.290344 1.663354 -0.242732 0.290344 1.663352 -0.242732 0.108248 0.021563 -1.294465 3.574783 -1.512645 2.354457 -0.000000 -0.000000 -0.000000 0.634149 -14.193120 -16.396760 -1.629509 11.105018 -51.359235 18.317077 -35.015498 -3.900379 19.033468 -10.045078 13.006166 -4.345572 9.457217 -7.836173 -9.346094 3.743707 5.534988 0.000001 0.000006 0.000005 -0.000002 0.000001 -0.000000 -1.806592 -4.292889 -44.431876 -5.659902 -4.118135 -82.295262 0.000007 0.000004 -0.000006 0.000002 -0.000001 0.000001 -8.198250 -5.748269 -64.692902 -7.601577 -5.256436 -102.781534 0.000010 0.000007 -0.000022 -0.000000 -0.000001 -0.000002 -11.585419 3.146260 -64.855003 -4.454209 -4.250795 -105.372778 -0.000004 -0.000003 0.000007 -0.000001 -0.000001 0.000001 -14.960561 8.359141 -74.262236 -1.773363 -6.208141 -96.284548 0.000001 0.000003 0.000001 -0.000001 0.000000 0.000002 1.540990 8.346740 16.169442 2.679991 -16.405097 55.825342 12.414008 39.991591 8.154653 14.263905 4.577841 -6.828330 0.151985 3.391513 7.379311 19.752234 -7.281241 -4.579584 0.000007 0.000011 -0.000011 -0.000005 -0.000006 0.000004 -3.412515 -0.325237 48.493230 -4.584949 1.442534 66.075537 -0.000001 0.000002 -0.000000 -0.000001 -0.000000 -0.000000 -5.866129 -0.642789 59.520188 -6.385539 1.712577 74.888585 0.000002 -0.000005 -0.000001 0.000001 0.000000 0.000000 -5.531888 5.219145 58.601288 -3.067576 6.550006 83.288242 -0.000000 0.000001 0.000001 0.000001 -0.000001 -0.000003 -5.272991 7.730699 52.807976 -3.210957 10.422558 87.975432 -0.000007 0.000004 -0.000003 0.000001 0.000002 -0.000001 -34.421138 2.571994 3.714443 44.629313 -3.799744 2.287874 1.778133 -0.258864 -3.671415 -4.530364 0.581294 -1.174063 0.000001 0.000000 -0.000000 -11.660318 -9.521268 5.444597 29.142665 12.640448 0.307946 -12.887234 2.600100 -8.637648 -7.342391 -0.196628 0.234805 -0.000000 0.000000 -0.000000 
0.903146 90.306320 11.586449 0.328013 -8.298702 -1.561077 0.144690 1.517419 0.516093 0.334086 2.458807 -0.563282 0.334086 2.458805 -0.563282 -0.378447 -0.878590 -1.533921 4.293148 -2.860221 2.517420 0.000000 -0.000000 -0.000000 0.730061 -13.605699 -15.996491 -0.133870 12.671219 -51.569216 18.578296 -35.607105 -3.469455 19.362973 -10.212501 14.059416 -4.345581 9.457215 -7.836174 -12.335429 5.279317 6.268038 0.000002 0.000008 0.000006 0.000001 0.000000 0.000000 -2.085682 -4.319004 -46.108479 -5.636679 -4.118157 -82.160079 0.000005 0.000003 -0.000004 0.000001 0.000003 -0.000001 -8.358900 -5.752854 -65.423971 -7.625303 -5.251423 -102.927385 0.000014 0.000004 -0.000025 -0.000003 0.000002 0.000000 -11.643602 2.958410 -64.999188 -4.441260 -4.254898 -104.841983 0.000000 0.000000 0.000007 0.000001 0.000003 -0.000000 -14.838895 9.313041 -74.836375 -1.770797 -6.209705 -96.352003 0.000001 0.000004 0.000000 -0.000001 0.000002 0.000000 1.581771 8.455189 15.761585 4.427879 -15.679946 55.557244 13.360228 48.499145 6.411009 10.765537 6.595393 -6.851416 4.968499 14.460113 13.360571 12.784739 -10.328464 -8.511081 -0.000004 0.000015 -0.000018 -0.000001 -0.000001 -0.000002 -4.216064 0.320505 53.214629 -4.608092 1.442634 66.250205 -0.000000 -0.000001 0.000000 -0.000001 0.000003 -0.000000 -6.675277 -0.431250 65.558157 -6.511936 1.669788 76.140094 0.000004 -0.000004 -0.000003 0.000004 -0.000001 -0.000002 -7.401281 6.302694 64.987706 -3.138904 6.594995 84.394316 0.000002 -0.000003 -0.000002 -0.000001 -0.000003 -0.000002 -6.633573 8.910842 56.707448 -3.235409 10.457050 88.642871 -0.000002 0.000004 -0.000004 0.000002 0.000001 -0.000002 -38.913944 1.421781 -0.319537 38.572476 -13.557718 4.484715 6.709550 -0.780604 -6.341429 -6.559847 -0.593482 -0.620094 -0.000000 0.000001 -0.000000 -10.816467 -8.555375 4.157630 31.896915 15.512263 0.332720 -13.682639 3.379167 -10.153044 -8.575604 -0.319652 0.364604 -0.000000 -0.000000 0.000000 
1.114773 88.345161 15.481372 0.129441 -14.486205 0.112245 0.113207 2.126497 -0.572491 0.240637 3.647435 -1.065875 0.240637 3.647432 -1.065875 -1.023960 -3.470579 -2.194213 4.520392 -7.599376 2.493499 0.000000 -0.000001 -0.000000 0.801677 -13.250820 -15.647706 0.990007 14.350127 -51.415349 17.596895 -34.679049 -3.602921 18.857640 -9.447251 14.314978 -4.345578 9.457217 -7.836173 -12.371555 5.703998 4.738482 0.000001 0.000009 0.000006 -0.000002 0.000000 0.000000 -2.554889 -3.748599 -50.115574 -5.627361 -4.118295 -82.104809 0.000002 0.000000 -0.000005 -0.000003 0.000000 -0.000001 -8.778478 -5.473459 -67.780441 -7.663055 -5.243350 -103.159325 0.000009 0.000006 -0.000020 -0.000001 -0.000002 -0.000002 -11.940469 2.466448 -66.965886 -4.433145 -4.257341 -104.511696 0.000002 -0.000003 0.000002 0.000002 -0.000000 -0.000000 -14.670630 10.588536 -75.192842 -1.764865 -6.213323 -96.511215 -0.000002 0.000001 0.000001 -0.000000 -0.000000 0.000001 1.625943 8.688299 15.285048 5.182934 -14.676574 55.647692 12.473323 53.932823 6.550857 7.639805 9.645460 -8.356155 4.514759 18.582672 14.363032 10.547084 -10.664826 -9.833980 -0.000001 0.000016 -0.000017 -0.000000 0.000002 0.000004 -4.441248 0.473406 54.416742 -4.515792 1.444699 65.508467 -0.000001 -0.000001 0.000001 -0.000001 -0.000001 0.000002 -7.049965 -0.150676 66.810363 -6.452441 1.690827 75.545055 0.000001 -0.000005 -0.000001 0.000000 -0.000004 0.000003 -7.294562 6.414246 64.280495 -3.090675 6.564858 83.648172 0.000003 0.000003 0.000001 0.000001 -0.000001 0.000001 -5.951368 9.137165 53.852497 -3.214344 10.427398 88.067441 -0.000003 0.000003 -0.000007 0.000001 -0.000001 0.000002 -42.759696 0.727587 -4.852463 38.214833 -26.865538 6.724239 13.850019 -1.808364 -11.434235 -4.999475 1.282377 -1.763068 -0.000000 -0.000003 0.000001 -12.719155 -6.828885 2.341241 38.754070 18.741626 -0.336575 -15.634892 3.881127 -12.145705 -10.443887 -0.461689 -1.613978 0.000000 0.000000 0.000000 
